<?xml version="1.0" standalone="no"?>
<!DOCTYPE svg PUBLIC "-//W3C//DTD SVG 20010904//EN"
 "http://www.w3.org/TR/2001/REC-SVG-20010904/DTD/svg10.dtd">
<svg version="1.0" xmlns="http://www.w3.org/2000/svg"
 width="1200.000000pt" height="1200.000000pt" viewBox="0 0 1200.000000 1200.000000"
 preserveAspectRatio="xMidYMid meet">
<metadata>
Created by potrace 1.14, written by Peter Selinger 2001-2017
</metadata>
<g transform="translate(0.000000,1200.000000) scale(0.100000,-0.100000)"
fill="#000000" stroke="none">
<path d="M5167 10479 c-735 -47 -1486 -299 -2103 -705 -924 -608 -1582 -1531
-1848 -2591 -94 -376 -129 -669 -129 -1073 -1 -310 13 -480 59 -740 14 -80 28
-161 31 -181 l5 -36 -143 -77 c-79 -43 -235 -132 -346 -199 l-203 -121 57 -23
56 -23 106 59 c135 75 485 251 499 251 6 0 16 -19 22 -42 23 -91 114 -368 157
-478 58 -147 191 -424 272 -565 184 -321 405 -612 686 -903 l119 -123 -94 -87
c-52 -48 -209 -194 -350 -325 l-255 -238 -6 -67 c-4 -37 -6 -68 -5 -68 0 -1
66 57 146 128 80 72 251 223 380 336 129 113 244 214 256 224 21 18 22 18 125
-69 930 -778 2138 -1129 3359 -977 1208 150 2315 821 3028 1834 836 1188 1022
2756 487 4110 -25 63 -45 120 -44 125 0 6 61 64 135 130 184 164 513 499 667
679 264 308 480 616 640 913 95 175 246 517 234 529 -1 2 -52 -56 -112 -129
-138 -165 -456 -491 -640 -655 -322 -287 -679 -551 -1092 -807 l-136 -85 -83
126 c-636 955 -1625 1625 -2745 1859 -390 81 -791 110 -1192 84z m327 -325 c9
-8 16 -19 16 -24 0 -13 -30 -40 -44 -40 -6 0 -17 5 -24 12 -7 7 -12 18 -12 24
0 14 27 44 40 44 5 0 16 -7 24 -16z m893 -430 c14 -14 36 -24 53 -24 16 0 32
-4 35 -10 4 -6 -8 -10 -29 -10 -52 0 -86 -38 -87 -98 l-1 -47 -10 48 c-14 67
-46 97 -106 98 l-47 2 45 6 c64 9 100 47 101 109 l1 47 10 -48 c6 -28 21 -59
35 -73z m-1153 -43 c35 -39 4 -90 -47 -77 -35 8 -46 49 -22 76 23 25 47 25 69
1z m509 -72 c30 -42 -16 -94 -62 -70 -23 13 -29 59 -9 79 19 19 55 14 71 -9z
m-1082 -305 c9 -11 10 -20 2 -32 -15 -24 -44 -27 -59 -7 -28 38 27 75 57 39z
m698 -8 c9 -11 10 -20 1 -36 -13 -25 -47 -24 -63 2 -22 34 36 66 62 34z m-599
-67 c9 -15 8 -24 -1 -35 -18 -21 -57 -18 -64 6 -14 44 44 69 65 29z m104 -65
c21 -20 20 -27 -3 -48 -36 -33 -83 18 -49 52 16 16 33 15 52 -4z m870 -70 c20
-19 20 -38 1 -54 -17 -14 -51 -5 -59 17 -6 15 19 53 35 53 4 0 15 -7 23 -16z
m-1034 -79 c20 -25 8 -50 -25 -50 -31 0 -43 20 -31 51 7 18 40 18 56 -1z
m-638 -16 c537 -58 1236 -476 1927 -1154 269 -264 509 -534 729 -817 69 -89
88 -108 115 -112 18 -3 74 -13 125 -22 51 -9 103 -14 115 -10 13 3 45 22 70
41 l47 36 0 -211 0 -211 -32 24 c-42 31 -142 87 -156 87 -5 0 25 -53 68 -118
219 -334 439 -744 560 -1045 l23 -59 18 30 c11 16 37 91 58 168 71 249 192
695 241 888 27 104 53 192 57 196 4 4 79 57 166 118 l158 112 190 0 c104 0
189 -2 189 -4 0 -2 126 -343 280 -758 165 -443 291 -769 308 -793 15 -22 43
-50 61 -62 l34 -23 -482 0 -481 0 41 42 c78 81 87 124 49 251 l-23 77 -272 0
c-209 0 -274 -3 -278 -12 -14 -39 -39 -208 -34 -230 4 -14 23 -49 42 -78 19
-29 35 -54 35 -56 0 -2 -68 -4 -151 -4 -117 0 -150 -3 -146 -12 2 -7 23 -69
45 -138 216 -666 199 -1186 -47 -1431 -119 -118 -234 -154 -466 -146 -176 7
-331 39 -558 114 -165 55 -214 79 -206 100 2 7 43 -5 104 -29 239 -94 422
-132 630 -132 229 0 325 33 433 148 74 79 131 192 164 321 20 79 23 114 22
290 0 215 -9 286 -64 505 -24 95 -97 325 -125 393 -6 14 -20 17 -76 17 -38 0
-69 4 -69 8 0 5 20 23 45 41 24 17 47 36 50 41 7 12 -86 220 -183 409 -128
249 -332 586 -489 806 -88 124 -84 122 -227 124 -171 2 -276 -51 -276 -140 0
-38 5 -48 48 -89 38 -37 68 -53 152 -84 210 -78 306 -117 353 -144 l48 -29
-39 -26 c-22 -14 -102 -64 -178 -110 -77 -47 -188 -116 -248 -155 l-109 -70
-86 30 c-286 101 -410 228 -442 453 -35 257 136 499 401 566 70 18 105 21 217
17 73 -2 133 -2 133 1 0 2 -44 58 -97 125 -699 874 -1524 1546 -2172 1770
-374 130 -675 102 -855 -78 -215 -215 -259 -621 -125 -1161 86 -349 264 -780
491 -1188 33 -59 59 -109 57 -111 -2 -1 -24 -10 -48 -20 -36 -14 -46 -15 -52
-4 -5 7 -45 81 -89 164 -248 467 -427 957 -501 1372 -30 164 -37 472 -15 599
40 233 150 413 309 506 86 51 232 90 359 96 15 0 74 -4 130 -10z m2343 -283
c13 -19 14 -29 6 -45 -25 -45 -91 -33 -91 17 0 54 56 72 85 28z m-2078 -352
c16 -16 35 -24 59 -24 21 0 33 -4 29 -10 -3 -5 -19 -10 -35 -10 -46 0 -80 -41
-81 -98 l-1 -47 -10 48 c-14 67 -46 97 -106 98 l-47 2 45 6 c64 9 100 47 101
109 l1 47 10 -48 c6 -28 21 -59 35 -73z m-462 41 c0 -23 -5 -31 -21 -33 -27
-4 -47 21 -39 48 5 16 14 20 33 18 23 -2 27 -8 27 -33z m160 -174 c10 -31 -5
-52 -34 -49 -26 3 -38 26 -27 54 8 21 53 18 61 -5z m-1267 -1768 c155 -263
293 -496 306 -518 l25 -40 1 416 0 416 -30 60 c-17 34 -51 79 -75 102 l-45 41
246 0 246 0 -34 -38 c-19 -21 -45 -60 -59 -87 l-24 -50 -3 -625 c-2 -434 0
-637 8 -663 7 -23 36 -64 77 -107 l66 -70 -353 2 -354 3 -105 175 c-58 97
-196 327 -306 513 l-200 337 -3 -421 -2 -421 27 -50 c15 -27 49 -69 75 -93 26
-24 48 -46 48 -49 0 -3 -120 -6 -266 -6 l-266 0 55 50 c34 31 63 70 78 102
l24 53 0 620 0 620 -24 45 c-13 24 -51 71 -84 102 l-61 58 366 0 365 0 281
-477z m2344 212 c54 -143 138 -370 188 -505 215 -589 280 -754 312 -794 l31
-39 -22 -19 c-22 -17 -50 -18 -453 -18 l-431 0 41 44 c49 53 72 96 72 134 0
28 -21 112 -42 165 l-10 27 -200 0 -199 0 33 -46 c40 -56 463 -587 531 -666
l47 -55 -54 -36 -54 -36 -42 61 c-24 33 -97 126 -164 207 -140 169 -297 372
-382 492 l-58 83 -18 -84 c-29 -144 -22 -190 40 -265 l25 -30 -132 -3 c-72 -1
-190 -1 -262 0 l-131 3 78 65 c43 36 87 79 99 96 20 29 62 174 201 684 113
415 144 541 144 578 0 47 -29 105 -86 170 l-46 52 423 -2 423 -3 98 -260z
m2878 235 c-19 -16 -38 -30 -41 -30 -3 0 -18 14 -34 30 l-29 30 70 0 69 -1
-35 -29z m-739 -852 c88 -106 139 -246 125 -342 -29 -191 -289 -405 -562 -461
-150 -31 -416 -14 -565 35 -112 37 -139 30 -226 -56 l-63 -62 0 79 0 78 113
74 c200 130 175 120 248 101 94 -24 302 -16 384 16 143 56 156 155 29 236 -31
20 -53 38 -50 42 23 22 484 320 498 321 9 1 40 -27 69 -61z m-1184 -437 c2 -6
-91 -71 -102 -71 -3 0 -5 36 -5 80 l0 80 53 -41 c28 -23 53 -44 54 -48z
m-2137 -426 c18 -22 3 -55 -25 -55 -29 0 -47 27 -34 52 12 22 42 23 59 3z
m4408 -277 c2 -19 -2 -28 -18 -33 -24 -8 -50 10 -50 35 0 24 10 31 40 28 19
-2 26 -10 28 -30z m563 -148 c23 -23 40 -30 72 -32 l42 -1 -41 -6 c-22 -3 -55
-18 -72 -33 -27 -23 -32 -34 -34 -75 l-2 -48 -3 48 c-5 58 -36 91 -98 103
l-40 8 39 4 c47 4 81 40 93 97 l8 40 3 -37 c2 -26 13 -47 33 -68z m-3692 -59
c36 -32 134 -111 216 -176 83 -64 163 -129 178 -144 62 -57 75 -129 33 -178
-22 -25 -31 -28 -83 -27 -88 1 -148 36 -274 163 -101 101 -260 299 -263 326
-1 13 99 92 118 94 4 1 38 -25 75 -58z m3212 8 c17 -33 -3 -69 -39 -69 -33 0
-52 16 -52 45 0 29 19 45 52 45 18 0 31 -7 39 -21z m-642 -31 c14 -24 14 -28
-3 -47 -34 -37 -86 -22 -86 25 0 55 63 70 89 22z m1261 -228 c23 -23 24 -33
10 -61 -12 -22 -59 -26 -78 -7 -19 19 -14 55 10 72 29 20 34 20 58 -4z m-1603
-16 c9 -24 -10 -49 -38 -49 -24 0 -36 23 -25 51 7 19 55 18 63 -2z m343 -64
c14 -26 5 -57 -21 -71 -43 -23 -92 44 -57 79 20 20 66 15 78 -8z m-3838 -12
c24 -20 28 -44 12 -67 -17 -23 -53 -28 -72 -9 -18 18 -15 65 6 77 23 14 35 13
54 -1z m4863 -8 c14 -44 -44 -69 -65 -29 -9 15 -8 24 1 35 18 21 57 18 64 -6z
m-6020 -220 c35 -39 -3 -91 -55 -75 -28 9 -37 51 -15 75 10 11 26 20 35 20 9
0 25 -9 35 -20z m-491 -66 c9 -8 16 -19 16 -24 0 -11 -29 -40 -40 -40 -11 0
-40 29 -40 40 0 11 29 40 40 40 5 0 16 -7 24 -16z m6126 -93 c0 -26 -25 -44
-50 -36 -25 8 -27 50 -3 64 23 12 53 -4 53 -28z m-990 -50 c0 -28 -28 -47 -48
-34 -24 15 -27 44 -7 59 22 17 55 1 55 -25z m-3956 -17 c9 -8 16 -19 16 -24 0
-5 -7 -16 -16 -24 -8 -9 -19 -16 -24 -16 -5 0 -16 7 -24 16 -9 8 -16 19 -16
24 0 5 7 16 16 24 8 9 19 16 24 16 5 0 16 -7 24 -16z m5038 -106 c23 -22 40
-28 77 -29 l46 -1 -49 -10 c-61 -11 -91 -39 -104 -98 l-10 -45 -1 42 c-1 60
-36 93 -99 94 l-47 1 45 12 c65 16 100 53 102 107 l1 44 4 -44 c3 -33 12 -51
35 -73z m-5798 76 c9 -8 16 -19 16 -24 0 -13 -30 -40 -44 -40 -34 0 -48 52
-18 69 23 14 28 14 46 -5z m6031 -119 c0 -25 -4 -31 -26 -33 -29 -3 -44 18
-33 50 4 14 13 18 32 16 23 -2 27 -8 27 -33z m-5835 -15 c23 -23 24 -33 10
-61 -12 -22 -59 -26 -78 -7 -19 19 -14 55 10 72 29 20 34 20 58 -4z m1331 -9
c20 -16 22 -23 14 -47 -18 -52 -95 -42 -95 12 0 20 32 54 51 54 4 0 17 -9 30
-19z m1904 -31 c13 -41 -43 -70 -64 -33 -13 25 5 53 34 53 15 0 26 -7 30 -20z
m-870 -325 c0 -25 -4 -30 -24 -30 -32 0 -49 28 -31 50 7 9 23 15 34 13 16 -2
21 -10 21 -33z m-1481 9 c9 -8 16 -19 16 -24 0 -13 -30 -40 -44 -40 -34 0 -48
52 -18 69 23 14 28 14 46 -5z m506 -113 c0 -28 -28 -47 -48 -34 -24 15 -27 44
-7 59 22 17 55 1 55 -25z m-375 -390 c24 -25 39 -31 75 -33 l45 -1 -45 -4
c-54 -5 -99 -44 -100 -85 0 -15 -4 -30 -10 -33 -6 -4 -10 7 -10 26 0 41 -33
72 -91 86 l-44 11 38 1 c56 2 97 45 98 103 l2 43 6 -41 c4 -26 18 -54 36 -73z
m3680 79 c14 -44 -44 -69 -65 -29 -9 15 -8 24 1 35 18 21 57 18 64 -6z"/>
<path d="M8161 6343 c-22 -70 -61 -198 -87 -283 -26 -85 -49 -161 -51 -167 -4
-10 41 -13 206 -13 116 0 211 3 211 6 0 7 -230 578 -235 582 -2 2 -22 -54 -44
-125z"/>
<path d="M4455 6402 c-10 -37 -49 -165 -87 -286 -37 -120 -68 -223 -68 -227 0
-5 92 -9 205 -9 157 0 205 3 205 13 0 13 -219 557 -229 569 -4 4 -15 -23 -26
-60z"/>
</g>
</svg>
